# xmcd CD Database Entry
#
# Track frame offsets:
# 150
# 13740
# 24495
# 34580
# 47315
# 62282
# 75050
# 84625
# 96700
# 108912
# 123162
#
# Disc length: 1784 seconds
#
# Revision: 1
# Processed by: cddbd v1.4PL0 Copyright (c) Steve Scherf et al.
# Submitted via: tcd 2.0b
#
DISCID=7206f60b
DTITLE=Loretta Lynn - Coal Miner's Daughter
DYEAR=1900
DGENRE=
TTITLE0=Coal Miner's Daughter
TTITLE1=Hello Darlin'
TTITLE2=Less Of Me
TTITLE3=Any One, Any Worse, Any Where
TTITLE4=For The Good Times
TTITLE5=The Man Of The House
TTITLE6=What Make Me Tick
TTITLE7=Another Man Loved Me Last Night
TTITLE8=It'll Be Open Season On You
TTITLE9=Too Far
TTITLE10=Snowbird
EXTD=
EXTT0=
EXTT1=
EXTT2=
EXTT3=
EXTT4=
EXTT5=
EXTT6=
EXTT7=
EXTT8=
EXTT9=
EXTT10=
PLAYORDER=
